<?xml version="1.0" encoding="UTF-8"?>
<svg version="1.1" xmlns="http://www.w3.org/2000/svg" width="2000" height="1125">
<path d="M0 0 C1.77313851 0.08209792 3.54920775 0.10746294 5.32421875 0.09765625 C6.35224609 0.09443359 7.38027344 0.09121094 8.43945312 0.08789062 C9.51130859 0.07951172 10.58316406 0.07113281 11.6875 0.0625 C13.31268555 0.05573242 13.31268555 0.05573242 14.97070312 0.04882812 C17.64719085 0.03703743 20.32356777 0.02058063 23 0 C23 0.99 23 1.98 23 3 C21.68 3.66 20.36 4.32 19 5 C29.28222888 7.25386661 39.29065258 7.26906674 49.75 7.1875 C51.60131686 7.17988294 53.45263533 7.17265073 55.30395508 7.16577148 C71.43292176 7.08668424 87.56080011 6.83353138 103.6875 6.5625 C104.88346802 6.54303314 106.07943604 6.52356628 107.31164551 6.50350952 C110.77426518 6.44553318 114.23673509 6.38196333 117.69921875 6.31640625 C118.70516586 6.29967865 119.71111298 6.28295105 120.74754333 6.26571655 C126.22464682 6.15463255 131.66094142 5.89039877 137.12475586 5.49072266 C148.83431737 4.68622749 160.57368915 4.83556341 172.3046875 4.83203125 C174.8394472 4.82880991 177.37420673 4.82544521 179.90896606 4.82194519 C185.19891662 4.81598922 190.48885549 4.81405837 195.77880859 4.81469727 C201.84318697 4.81529758 207.90747628 4.80473979 213.97183216 4.7889536 C219.86859846 4.77416621 225.76533025 4.7707128 231.66211319 4.77130699 C234.1424712 4.77013794 236.6228301 4.76577768 239.10317612 4.75797462 C250.60736953 4.72515752 261.94419527 4.75940996 273.36478424 6.22713947 C292.56491252 8.65218233 312.21117712 8.27337116 331.53178453 8.67424965 C335.20566182 8.75092297 338.87948293 8.83021633 342.55331421 8.90905762 C348.76434653 9.04193728 354.97542025 9.17272387 361.18652344 9.30224609 C367.39653539 9.43176964 373.60649436 9.56351838 379.81640625 9.69775391 C388.95306335 9.89520867 398.08977927 10.0897186 407.2265625 10.28125 C407.97818318 10.29703976 408.72980387 10.31282951 409.50420094 10.32909775 C427.62414696 10.7089019 445.74386116 11.03974733 463.86621094 11.28125 C464.6742938 11.29215384 465.48237667 11.30305769 466.31494689 11.31429195 C474.12047024 11.41957517 481.92598976 11.52170154 489.73174858 11.60797596 C492.55746332 11.63998991 495.38312423 11.67566313 498.20878458 11.71213531 C500.14351843 11.73572635 502.07831264 11.75419128 504.01310349 11.77252197 C505.16042576 11.7876886 506.30774803 11.80285522 507.48983765 11.81848145 C508.98654023 11.83501141 508.98654023 11.83501141 510.51347923 11.85187531 C513 12 513 12 516 13 C516.94921875 15.28515625 516.94921875 15.28515625 517.6875 18.0625 C517.93886719 18.98160156 518.19023438 19.90070313 518.44921875 20.84765625 C518.72185547 21.91306641 518.72185547 21.91306641 519 23 C517.9644397 23.11275269 517.9644397 23.11275269 516.90795898 23.2277832 C513.74977493 23.57810411 510.59374726 23.94515449 507.4375 24.3125 C505.80844727 24.48942383 505.80844727 24.48942383 504.14648438 24.66992188 C497.53098444 25.38749669 497.53098444 25.38749669 491.3203125 27.6015625 C486.89941977 29.4635385 483.16792265 29.25944611 478.4375 29.0625 C472.7296493 28.85275099 468.43467572 29.00067404 463 31 C460.796875 31.01171875 460.796875 31.01171875 458.75 30.6875 C457.99332031 30.57921875 457.23664062 30.4709375 456.45703125 30.359375 C455.64621094 30.24078125 454.83539062 30.1221875 454 30 C452.14675899 29.80356162 450.29256224 29.61592183 448.4375 29.4375 C447.59058594 29.35371094 446.74367188 29.26992188 445.87109375 29.18359375 C445.25363281 29.12300781 444.63617187 29.06242187 444 29 C443.67 30.65 443.34 32.3 443 34 C444.18618927 34.02061493 445.37237854 34.04122986 446.59451294 34.06246948 C457.91674748 34.26021032 469.2388167 34.46583596 480.56077766 34.67867851 C486.37786053 34.78779448 492.19496409 34.89437804 498.01220703 34.99462891 C520.9654694 35.39181326 543.84194256 35.82265007 566.73779297 37.56298828 C575.40890755 38.20881735 584.08126942 38.35224915 592.7729187 38.46359253 C606.01970744 38.6404417 619.22563735 38.92275662 632.4375 39.9375 C646.4461026 41.00542488 660.46150682 41.55344908 674.5 42.0625 C675.67028748 42.10493835 676.84057495 42.14737671 678.04632568 42.19110107 C694.5860518 42.78420221 711.12690258 43.27489666 727.67236328 43.67382812 C738.79106576 43.94503839 749.89532518 44.37419698 761 45 C761.33 46.32 761.66 47.64 762 49 C761.01 49.66 760.02 50.32 759 51 C760.13888672 51.09087891 760.13888672 51.09087891 761.30078125 51.18359375 C762.29464844 51.26738281 763.28851562 51.35117187 764.3125 51.4375 C765.29863281 51.51871094 766.28476563 51.59992188 767.30078125 51.68359375 C770 52 770 52 773 53 C772.67 53.99 772.34 54.98 772 56 C768.55195639 57.40012095 764.70528403 57.25398525 761.03125 57.4296875 C759.64060048 57.50344536 758.24997619 57.5776802 756.859375 57.65234375 C754.6922484 57.764789 752.52514697 57.87383664 750.35742188 57.97412109 C743.40869632 58.3017404 736.69004686 58.63606277 729.953125 60.53515625 C723.46163036 62.3383492 717.05396069 62.46915773 710.36312866 62.5395813 C706.72190542 62.5790735 703.08178571 62.66399608 699.44140625 62.75 C698.71742142 62.76652115 697.99343658 62.7830423 697.24751282 62.80006409 C690.86837949 62.96420188 684.53922303 63.45208151 678.1875 64.0625 C667.76641369 65.05443566 657.46124498 65.20829913 647 65 C647 65.66 647 66.32 647 67 C648.74470581 66.98477295 648.74470581 66.98477295 650.5246582 66.96923828 C663.06527255 66.89499549 675.56629656 67.20852561 688.0949707 67.74462891 C691.22252541 67.87647656 694.35041969 67.9950563 697.47851562 68.11328125 C699.50003337 68.19711586 701.52151927 68.28172266 703.54296875 68.3671875 C704.46184372 68.40061249 705.38071869 68.43403748 706.32743835 68.46847534 C721.25470328 69.14841918 721.25470328 69.14841918 725.4375 73.5859375 C729.27489527 77.20104463 732.91246851 76.6692394 738 76.625 C739.7708812 76.625 741.54181601 76.63763438 743.3125 76.6640625 C744.09238281 76.65842285 744.87226562 76.6527832 745.67578125 76.64697266 C748.62057561 77.0942597 750.45893491 78.47467924 753 80 C755.65635633 80.60798697 755.65635633 80.60798697 758.45703125 80.80859375 C759.48763672 80.91623047 760.51824219 81.02386719 761.58007812 81.13476562 C763.72304834 81.33546676 765.86627827 81.53341507 768.00976562 81.72851562 C775.78434974 82.54714785 781.01685357 84.60103438 787.63525391 88.5871582 C791.9821792 90.41241264 795.77908513 90.55829885 800.44921875 90.6953125 C801.34365189 90.73308807 802.23808502 90.77086365 803.15962219 90.80978394 C806.00190976 90.92772453 808.84445311 91.02723791 811.6875 91.125 C814.54101982 91.2331516 817.39432024 91.3451762 820.24751282 91.4616394 C822.01909742 91.53289941 823.79090823 91.59878305 825.56291199 91.65872192 C826.36417007 91.68900482 827.16542816 91.71928772 827.9909668 91.75048828 C828.69456833 91.77474884 829.39816986 91.7990094 830.12309265 91.82400513 C832 92 832 92 835 93 C835 93.66 835 94.32 835 95 C832.11664631 96.44167685 829.48687633 96.25718394 826.26953125 96.39453125 C824.89514085 96.46337031 823.52079283 96.53305955 822.14648438 96.60351562 C819.98547179 96.71038023 817.82476409 96.81200832 815.6628418 96.89868164 C804.70707901 97.32908983 804.70707901 97.32908983 795 102 C791.98046875 102.7578125 791.98046875 102.7578125 789.1875 103.125 C785.12055909 103.55379878 785.12055909 103.55379878 782 106 C782 106.99 782 107.98 782 109 C788.32905858 109.71457113 794.66118686 110.37802877 801 111 C800.67 112.32 800.34 113.64 800 115 C807.14874641 117.27460113 814.28093384 117.44841716 821.72607422 117.63305664 C823.86346805 117.68720784 825.99987622 117.75760531 828.13671875 117.83007812 C835.49791333 118.05436001 842.69628598 118.03537133 850 117 C849.34 115.68 848.68 114.36 848 113 C849 112 849 112 851.94140625 111.90234375 C853.13636719 111.91394531 854.33132813 111.92554688 855.5625 111.9375 C856.76003906 111.94652344 857.95757813 111.95554687 859.19140625 111.96484375 C860.58166016 111.98224609 860.58166016 111.98224609 862 112 C862.33 112.66 862.66 113.32 863 114 C859.25 119.875 859.25 119.875 857 121 C855.47385881 121.10528236 853.94369327 121.15526217 852.4140625 121.17578125 C838.85332833 121.47913201 838.85332833 121.47913201 825.8828125 125.1484375 C821.02105998 126.58456494 816.1649293 126.23436779 811.15234375 126.04296875 C807.97147829 125.8266581 807.97147829 125.8266581 805 127 C802.31061528 127.15499122 799.62879565 127.27525776 796.9375 127.375 C790.25589846 127.68061077 784.28020826 128.54655255 778 131 C780.22844214 131.6483289 782.4577846 132.29356369 784.6875 132.9375 C785.92886719 133.29714844 787.17023438 133.65679688 788.44921875 134.02734375 C794.56882111 135.70367047 800.13751 136.1951517 806.45703125 136.31640625 C807.35999435 136.33718735 808.26295746 136.35796844 809.19328308 136.37937927 C812.06628097 136.4445528 814.93936714 136.50360955 817.8125 136.5625 C819.76498294 136.60571586 821.71745708 136.64933112 823.66992188 136.69335938 C828.44652503 136.80020107 833.22321664 136.90155857 838 137 C838 137.66 838 138.32 838 139 C832.4811354 140.48082275 827.11803056 141.52916571 821.4375 142.125 C820.61797852 142.21281738 819.79845703 142.30063477 818.95410156 142.39111328 C812.6893365 142.99263432 806.5361795 143.00527207 800.25 142.875 C789.58800159 142.68947905 779.26975307 143.95046918 768.7331543 145.43041992 C757.96478159 146.93219298 747.22356058 147.87476604 736.37890625 148.60546875 C731.88916677 148.91056606 727.45802107 149.38894824 723 150 C722.67 151.65 722.34 153.3 722 155 C722.99330322 154.93941406 723.98660645 154.87882813 725.01000977 154.81640625 C728.72049522 154.59064911 732.43114365 154.36767387 736.1418457 154.14550781 C737.74312798 154.04925322 739.34436603 153.95225979 740.94555664 153.85449219 C743.25655871 153.71351603 745.56771054 153.57526073 747.87890625 153.4375 C748.58648575 153.39375244 749.29406525 153.35000488 750.02308655 153.30493164 C754.36002031 153.04961958 758.65838639 152.96032792 763 153 C762.07138763 155.32153092 761.45066355 156.71423715 759.30859375 158.07250977 C756.46676729 159.21422917 753.8528969 159.58323473 750.8125 159.96484375 C749.56903809 160.12364014 748.32557617 160.28243652 747.04443359 160.44604492 C745.69632367 160.61014779 744.34817827 160.77395954 743 160.9375 C741.61665236 161.11071017 740.23335206 161.28429876 738.85009766 161.45825195 C728.18908542 162.78608756 717.51244553 163.96168303 706.82421875 165.04858398 C705.73496094 165.16016846 704.64570312 165.27175293 703.5234375 165.38671875 C702.57388184 165.48170654 701.62432617 165.57669434 700.64599609 165.67456055 C698.06072797 165.99253087 695.5460659 166.45449687 693 167 C693 167.66 693 168.32 693 169 C700.26 169.33 707.52 169.66 715 170 C715 173.76687864 714.76462683 174.91190305 713 178 C714.00417969 177.98839844 715.00835938 177.97679687 716.04296875 177.96484375 C724.74906531 177.89642649 733.32373255 178.16802915 742 179 C742 179.66 742 180.32 742 181 C738.38783894 181.79252077 734.87064923 182.23269668 731.18359375 182.5 C730.08982422 182.5825 728.99605469 182.665 727.86914062 182.75 C725.57749456 182.91694974 723.28582779 183.08361545 720.99414062 183.25 C719.90166016 183.3325 718.80917969 183.415 717.68359375 183.5 C716.68900146 183.5721875 715.69440918 183.644375 714.66967773 183.71875 C712.34809277 183.9633285 710.24019758 184.36155865 708 185 C708 185.66 708 186.32 708 187 C710.57341093 188.28670546 712.44732332 188.14571855 715.32910156 188.17358398 C717.00289886 188.19381874 717.00289886 188.19381874 718.71051025 188.21446228 C719.92494812 188.22490067 721.13938599 188.23533905 722.390625 188.24609375 C724.96354459 188.27906955 727.53646118 188.31228048 730.109375 188.34570312 C734.16402086 188.39387573 738.21869588 188.43755048 742.2734375 188.47680664 C746.1876393 188.51693874 750.10157454 188.5684201 754.015625 188.62109375 C755.20577209 188.6295079 756.39591919 188.63792206 757.62213135 188.64659119 C763.5162101 188.73161332 769.17751903 189.10180474 775.00439453 190.01586914 C782.02153661 191.10291806 788.82535379 191.22437639 795.9140625 191.125 C797.80117447 191.11364014 797.80117447 191.11364014 799.72640991 191.10205078 C803.69273261 191.07787886 807.6588255 191.04094302 811.625 191 C816.88799942 190.94619257 822.1508726 190.90692565 827.4140625 190.875 C829.22023544 190.85010498 829.22023544 190.85010498 831.06289673 190.82470703 C832.17861053 190.81810059 833.29432434 190.81149414 834.44384766 190.8046875 C835.42310211 190.79421387 836.40235657 190.78374023 837.4112854 190.77294922 C840.0886198 191.00777266 841.71112713 191.63200995 844 193 C841.02157705 194.9856153 840.12767639 195.28915268 836.74609375 195.5625 C835.88951172 195.63726563 835.03292969 195.71203125 834.15039062 195.7890625 C833.25513672 195.85867188 832.35988281 195.92828125 831.4375 196 C829.70686826 196.14388624 827.97640469 196.28980606 826.24609375 196.4375 C825.30878418 196.51742187 824.37147461 196.59734375 823.40576172 196.6796875 C816.26010642 197.35173766 809.13093758 198.18846867 802 199 C803.15000488 199.01981934 804.30000977 199.03963867 805.48486328 199.06005859 C809.76779385 199.13636046 814.05039556 199.22503946 818.33300781 199.31738281 C820.18352751 199.35557122 822.03411887 199.39044151 823.88476562 199.421875 C826.55104107 199.46774641 829.21682748 199.52570359 831.8828125 199.5859375 C832.70492218 199.59748871 833.52703186 199.60903992 834.37405396 199.62094116 C838.95068528 199.73747288 842.69020304 200.27244426 847 202 C847 202.66 847 203.32 847 204 C829.18 205.485 829.18 205.485 811 207 C810.34 208.65 809.68 210.3 809 212 C802.01706969 216.4806531 791.18778541 216.61214195 783.19750977 217.87768555 C781.27016951 218.18546015 779.34404762 218.50083401 777.41796875 218.81640625 C776.28125732 218.99631104 775.1445459 219.17621582 773.97338867 219.36157227 C771.30998299 219.93344236 769.34164178 220.64378572 767 222 C767 222.33 767 222.66 767 223 C772.61 223.33 778.22 223.66 784 224 C783.34 225.32 782.68 226.64 782 228 C779.19140625 228.7578125 779.19140625 228.7578125 775.5625 229.125 C774.59268188 229.23110596 774.59268188 229.23110596 773.60327148 229.33935547 C772.18299433 229.49231097 770.76176127 229.63656843 769.33984375 229.7734375 C766.81804924 230.01761794 764.29991871 230.28800591 761.78125 230.5625 C757.18926542 231.06006101 752.59539336 231.5350194 748 232 C748 232.99 748 233.98 748 235 C751.3 235.33 754.6 235.66 758 236 C757.67 236.66 757.34 237.32 757 238 C754.5859375 238.74609375 754.5859375 238.74609375 751.375 239.4375 C750.20195313 239.69402344 749.02890625 239.95054687 747.8203125 240.21484375 C742.7912295 241.24842829 737.75162233 242.22216679 732.703125 243.15625 C728.389701 244.13905547 724.19694888 245.60101704 720 247 C728.25 247 736.5 247 745 247 C745 247.99 745 248.98 745 250 C726.21927998 251.81972413 707.48035981 253.19913727 688.625 253.9375 C673.86132836 254.51971705 659.20596723 255.51766679 644.5 256.9375 C626.93449712 258.61712506 609.37383427 259.75483264 591.75 260.625 C590.63407471 260.68130585 589.51814941 260.73761169 588.3684082 260.79562378 C581.64707512 261.13063752 574.92470073 261.43038134 568.20057201 261.70284557 C563.85673743 261.87925362 559.51352863 262.06560526 555.17056274 262.2623291 C526.90367581 263.53308474 498.7078747 264.18156806 470.41796875 263.90625 C469.71527469 263.89944702 469.01258063 263.89264403 468.28859282 263.8856349 C458.31314123 263.78705528 448.33808703 263.66054187 438.36302948 263.52863312 C428.17052687 263.39448503 417.9779798 263.26767319 407.785137 263.16219664 C404.39063283 263.12651131 400.99631544 263.08631355 397.60201073 263.03486633 C393.86517563 262.97935811 390.128384 262.93668566 386.39135742 262.89648438 C385.30845428 262.87680099 384.22555115 262.85711761 383.10983276 262.83683777 C376.80618366 262.78437606 370.96549613 263.40672236 364.76924229 264.54605675 C360.9411871 265.17356407 357.2391269 265.24427819 353.36962891 265.17993164 C352.18551233 265.17385423 352.18551233 265.17385423 350.97747421 265.16765404 C349.26062209 265.15801502 347.54379029 265.14390368 345.82700729 265.12573051 C340.93330928 265.07532151 336.03940965 265.06280013 331.14550781 265.04345703 C329.56193891 265.03582982 329.56193891 265.03582982 327.94637871 265.02804852 C315.15889281 264.97293065 302.37294903 265.08098784 289.5859375 265.18359375 C286.96909691 265.20356238 284.35225525 265.22339087 281.7354126 265.24308777 C276.90917332 265.2795158 272.08293778 265.31638678 267.256706 265.35379571 C250.99150006 265.47982029 234.72623723 265.59769337 218.4609375 265.7109375 C217.62130809 265.71678934 216.78167868 265.72264119 215.91660595 265.72867036 C163.94487343 266.08971953 111.97240012 266.32158231 60 266.5625 C57.58503977 266.57371302 55.17007954 266.58492696 52.75511932 266.59614182 C23.17009159 266.73344078 -6.41494751 266.8681452 -36 267 C-36 268.32 -36 269.64 -36 271 C-35.07371796 271.03092239 -35.07371796 271.03092239 -34.12872314 271.06246948 C-27.70453153 271.27874563 -21.28089271 271.50792841 -14.85742188 271.74462891 C-12.45975302 271.83127991 -10.06196264 271.9146336 -7.6640625 271.99462891 C-4.21837738 272.11015063 -0.77330257 272.23750392 2.671875 272.3671875 C3.74491882 272.40061249 4.81796265 272.43403748 5.92352295 272.46847534 C6.92425842 272.50836578 7.9249939 272.54825623 8.95605469 272.58935547 C9.83541687 272.62044403 10.71477905 272.65153259 11.62078857 272.68356323 C14.13031897 273.01733251 15.82115922 273.7399223 18 275 C17.67 275.66 17.34 276.32 17 277 C12.09459428 277.98143127 7.24152254 278.14860551 2.25610352 278.14526367 C1.13982039 278.15022087 1.13982039 278.15022087 0.0009861 278.15527821 C-2.45638879 278.16461897 -4.9137024 278.16657877 -7.37109375 278.16796875 C-9.11374458 278.17199989 -10.85639494 278.17623595 -12.5990448 278.18066406 C-18.21187323 278.19217311 -23.82466354 278.19058035 -29.4375 278.1875 C-30.86708668 278.18732061 -30.86708668 278.18732061 -32.32555389 278.1871376 C-61.40973313 278.18249822 -90.42552646 277.94207305 -119.4644165 276.15496826 C-122.00119493 275.99992697 -124.53833536 275.85291039 -127.07568359 275.70751953 C-155.01478516 274.08375256 -182.8222812 271.19199523 -210.65087891 268.27513123 C-220.22266084 267.27510675 -229.79882384 266.3247743 -239.37753677 265.39364243 C-241.7703124 265.16084036 -244.1629894 264.92705088 -246.55563354 264.69290161 C-247.73450166 264.57755538 -247.73450166 264.57755538 -248.93718529 264.45987892 C-250.51749085 264.30523879 -252.09779405 264.15057451 -253.67809486 263.99588585 C-257.53461815 263.61885444 -261.39135449 263.24434366 -265.24865723 262.87536621 C-296.28355483 259.90365179 -296.28355483 259.90365179 -309 257 C-309.495 255.515 -309.495 255.515 -310 254 C-291.63773421 253.82713348 -291.63773421 253.82713348 -284.9375 254.5 C-279.82461989 255.00622575 -274.75853208 255.11261139 -269.625 255.125 C-268.8630835 255.12951172 -268.10116699 255.13402344 -267.31616211 255.13867188 C-266.58534424 255.13673828 -265.85452637 255.13480469 -265.1015625 255.1328125 C-264.45525879 255.13168457 -263.80895508 255.13055664 -263.14306641 255.12939453 C-260.38791643 254.96304348 -257.71867257 254.46661644 -255 254 C-264.38668692 252.58288856 -273.75211635 251.45647825 -283.203125 250.5625 C-285.16598441 250.37064133 -287.12884289 250.17877244 -289.09164047 249.98628235 C-293.86399739 249.51891206 -298.6369137 249.05761388 -303.41064453 248.60449219 C-306.11806983 248.347215 -308.82496515 248.08527483 -311.53143311 247.81811523 C-314.06592167 247.5681497 -316.60111882 247.32524815 -319.13702393 247.09008789 C-320.27290955 246.97656982 -321.40879517 246.86305176 -322.57910156 246.74609375 C-323.58056213 246.64997803 -324.58202271 246.5538623 -325.61383057 246.45483398 C-328 246 -328 246 -330 244 C-327.22957891 241.22957891 -325.23466195 241.60203894 -321.375 241.375 C-319.59222656 241.26285156 -319.59222656 241.26285156 -317.7734375 241.1484375 C-316.40058594 241.07496094 -316.40058594 241.07496094 -315 241 C-317.11452238 238.88547762 -321.56995426 239.55438351 -324.43359375 239.37890625 C-327 239 -327 239 -329 237 C-324.3177901 235.56667044 -319.86555453 234.67529049 -315 234 C-315.9286084 233.94465088 -316.8572168 233.88930176 -317.81396484 233.83227539 C-321.25446073 233.62513866 -324.6946722 233.41411692 -328.13476562 233.20043945 C-329.624579 233.10870618 -331.11448904 233.01852907 -332.60449219 232.92993164 C-334.74441322 232.8024197 -336.88392586 232.66934148 -339.0234375 232.53515625 C-340.31169434 232.456604 -341.59995117 232.37805176 -342.92724609 232.29711914 C-346 232 -346 232 -348 231 C-348 230.34 -348 229.68 -348 229 C-331.6738812 227.71405141 -315.36516775 226.6287931 -299 226 C-299 225.67 -299 225.34 -299 225 C-299.71542969 224.91435791 -300.43085938 224.82871582 -301.16796875 224.74047852 C-304.44533799 224.34803157 -307.72266924 223.95526818 -311 223.5625 C-312.68802734 223.36043945 -312.68802734 223.36043945 -314.41015625 223.15429688 C-315.51230469 223.02216797 -316.61445313 222.89003906 -317.75 222.75390625 C-319.3753064 222.55994263 -319.3753064 222.55994263 -321.03344727 222.36206055 C-323.43039096 222.0695194 -325.82213636 221.75415788 -328.21484375 221.4296875 C-332.66609293 220.92438574 -337.08851528 220.73534663 -341.5625 220.5625 C-366.81028009 219.35432689 -366.81028009 219.35432689 -373.77734375 213.4375 C-375 212 -375 212 -375 210 C-370.87645651 208.47926056 -367.24162334 207.69375589 -362.859375 207.4375 C-361.12880859 207.32535156 -361.12880859 207.32535156 -359.36328125 207.2109375 C-357.57470703 207.10652344 -357.57470703 207.10652344 -355.75 207 C-341.65806353 206.64103294 -341.65806353 206.64103294 -328.67089844 201.99365234 C-325.03241277 199.85314529 -321.92660525 199.2959015 -317.6875 198.9140625 C-316.56009399 198.80779037 -316.56009399 198.80779037 -315.40991211 198.69937134 C-312.60807716 198.44476058 -309.80464155 198.22157549 -307 198 C-305.81374023 197.9021521 -304.62748047 197.8043042 -303.40527344 197.70349121 C-294.80334407 196.99641348 -286.19830431 196.34175877 -277.59033203 195.71289062 C-274.54395304 195.49000064 -271.49812951 195.26105174 -268.45263672 195.02636719 C-252.31108334 193.78381138 -236.28253654 192.69801551 -220.078125 192.96664429 C-212.48028038 193.11944459 -212.48028038 193.11944459 -205 192 C-204.34 191.01 -203.68 190.02 -203 189 C-204.0209375 189.01740234 -204.0209375 189.01740234 -205.0625 189.03515625 C-211.26779679 189.09291832 -217.43244238 188.9320061 -223.625 188.5625 C-224.32367187 188.52326416 -225.02234375 188.48402832 -225.7421875 188.44360352 C-230.75549279 188.12225361 -230.75549279 188.12225361 -233 187 C-233 186.34 -233 185.68 -233 185 C-227.599852 180.288609 -223.07894125 179.02520439 -216.0625 178.1875 C-215.18787109 178.06697266 -214.31324219 177.94644531 -213.41210938 177.82226562 C-211.27706806 177.53059331 -209.13878614 177.26280789 -207 177 C-208.01497559 177.06058594 -209.02995117 177.12117187 -210.07568359 177.18359375 C-244.07013788 179.19066597 -244.07013788 179.19066597 -259.8125 179.3125 C-260.82812012 179.32990234 -261.84374023 179.34730469 -262.89013672 179.36523438 C-268.33717704 179.36153959 -272.69958692 178.6851971 -277.79467773 176.77319336 C-281.63897848 175.42536866 -285.62126942 174.82452365 -289.625 174.125 C-301.14527961 172.02678676 -312.57067187 169.54229185 -324 167 C-324 166.01 -324 165.02 -324 164 C-323.21238281 164.0721875 -322.42476563 164.144375 -321.61328125 164.21875 C-307.00793256 166.0240198 -307.00793256 166.0240198 -293 163 C-294.92585938 162.85304688 -294.92585938 162.85304688 -296.890625 162.703125 C-309.49306653 161.66382261 -321.65710709 159.73108049 -334 157 C-334 156.01 -334 155.02 -334 154 C-330.32612505 153.14701624 -326.9552607 152.89210529 -323.1875 152.9375 C-322.21167969 152.94652344 -321.23585938 152.95554687 -320.23046875 152.96484375 C-319.12638672 152.98224609 -319.12638672 152.98224609 -318 153 C-318.34520448 151.03506426 -318.34520448 151.03506426 -319 149 C-320.9837767 147.71563266 -320.9837767 147.71563266 -323 147 C-322.34 145.68 -321.68 144.36 -321 143 C-322.65 142.01 -324.3 141.02 -326 140 C-325.37915039 138.11791992 -325.37915039 138.11791992 -324 136 C-321.31030273 134.91918945 -321.31030273 134.91918945 -317.93359375 134.11328125 C-316.72638672 133.81486328 -315.51917969 133.51644531 -314.27539062 133.20898438 C-313.00888672 132.91314453 -311.74238281 132.61730469 -310.4375 132.3125 C-307.93557132 131.70701041 -305.4342332 131.09907346 -302.93359375 130.48828125 C-301.2638147 130.09443237 -301.2638147 130.09443237 -299.56030273 129.69262695 C-297.085057 129.25102976 -297.085057 129.25102976 -296 128 C-299.56880088 127.1093789 -302.10929347 126.99039966 -305.6875 127.8125 C-306.55117188 128.00328125 -307.41484375 128.1940625 -308.3046875 128.390625 C-309.19414062 128.59171875 -310.08359375 128.7928125 -311 129 C-312.76983993 129.35909796 -314.54065684 129.71342045 -316.3125 130.0625 C-317.09238281 130.21847656 -317.87226563 130.37445312 -318.67578125 130.53515625 C-319.44277344 130.68855469 -320.20976562 130.84195313 -321 131 C-321.763125 131.18949219 -322.52625 131.37898437 -323.3125 131.57421875 C-326.8072463 132.12789222 -330.17489408 131.97963365 -333.6875 131.75 C-334.74553833 131.68220337 -334.74553833 131.68220337 -335.82495117 131.61303711 C-342.74727474 131.08213311 -349.15317188 129.89788542 -355 126 C-354.505 124.515 -354.505 124.515 -354 123 C-351.34406841 122.12275608 -348.84766028 121.45468927 -346.125 120.875 C-345.35792725 120.70250732 -344.59085449 120.53001465 -343.80053711 120.35229492 C-338.55263154 119.21465247 -333.37286071 118.46267195 -328.00390625 118.17578125 C-325.9286194 118.1173699 -325.9286194 118.1173699 -324 117 C-329.61 117 -335.22 117 -341 117 C-340 113 -340 113 -338.3984375 111.62109375 C-337.73070312 111.23050781 -337.06296875 110.83992187 -336.375 110.4375 C-335.65183594 110.01210938 -334.92867188 109.58671875 -334.18359375 109.1484375 C-332 108 -332 108 -328.4375 106.5625 C-324.26931367 104.66786985 -321.31225969 102.11090652 -318 99 C-318.6290625 98.90203125 -319.258125 98.8040625 -319.90625 98.703125 C-325.94238089 97.64862021 -330.64440845 95.97532864 -336 93 C-335.25 86.375 -335.25 86.375 -333 83 C-336.3 84.65 -339.6 86.3 -343 88 C-345.5625 85.8125 -345.5625 85.8125 -348 83 C-348.11022067 78.59117319 -345.85575123 76.17252364 -343 73 C-339.984375 70.98046875 -339.984375 70.98046875 -336.75 69.1875 C-335.67234375 68.58292969 -334.5946875 67.97835937 -333.484375 67.35546875 C-332.66453125 66.90816406 -331.8446875 66.46085937 -331 66 C-332.65 66 -334.3 66 -336 66 C-339.125 59.375 -339.125 59.375 -338 56 C-330.74265657 51.80093507 -323.30299548 50.17978927 -315 50 C-315.33 49.34 -315.66 48.68 -316 48 C-319.0399648 47.30662208 -319.0399648 47.30662208 -322.5625 46.875 C-323.76003906 46.70742188 -324.95757812 46.53984375 -326.19140625 46.3671875 C-327.58166016 46.18542969 -327.58166016 46.18542969 -329 46 C-329 45.34 -329 44.68 -329 44 C-325.07248666 42.24754088 -321.13133247 40.52787995 -317.1875 38.8125 C-316.10662109 38.32974609 -315.02574219 37.84699219 -313.91210938 37.34960938 C-296.97087312 30.03295952 -278.85843648 26.75049563 -260.8125 23.3125 C-259.72060364 23.1030072 -258.62870728 22.8935144 -257.50372314 22.67767334 C-208.93399293 13.40114979 -159.90920097 5.65386481 -110.5625 2.25 C-109.15141464 2.15164352 -109.15141464 2.15164352 -107.71182251 2.05130005 C-91.04425591 0.91255634 -74.54783645 0.72984368 -57.86328125 1.50805664 C-44.03405832 2.13027009 -30.92438853 1.77206727 -17.1875 -0.30859375 C-11.39895901 -1.16255318 -5.61724748 -1.87241583 0 0 Z M-93.734375 109.4375 C-107.8658006 110.77303399 -121.80935058 111.26026868 -136 111 C-136.33 111.66 -136.66 112.32 -137 113 C-119.54355068 116.58081012 -101.68561767 114.71951875 -84 114 C-84.66 112.35 -85.32 110.7 -86 109 C-88.63133607 109 -91.11958291 109.17771936 -93.734375 109.4375 Z M-69 115 C-69 115.99 -69 116.98 -69 118 C-60.4634294 121.80095479 -51.84001373 121.50467056 -43 119 C-47.35066375 116.65415664 -51.76082308 115.77301294 -56.5625 114.75 C-57.42552734 114.55148437 -58.28855469 114.35296875 -59.17773438 114.1484375 C-60.00724609 113.97054687 -60.83675781 113.79265625 -61.69140625 113.609375 C-62.44623291 113.44405273 -63.20105957 113.27873047 -63.97875977 113.10839844 C-66.31936452 112.78068657 -66.31936452 112.78068657 -69 115 Z M-200 175 C-200 175.33 -200 175.66 -200 176 C-194.39 176 -188.78 176 -183 176 C-183 175.67 -183 175.34 -183 175 C-188.61 175 -194.22 175 -200 175 Z " fill="#000000" transform="translate(756,420)"/>
<path d="M0 0 C0.81611252 -0.0040535 1.63222504 -0.00810699 2.47306824 -0.01228333 C5.20083346 -0.02189346 7.92846983 -0.02165172 10.65625 -0.01953125 C11.59409332 -0.02025635 12.53193665 -0.02098145 13.49819946 -0.02172852 C31.73617982 -0.02019079 49.93167663 0.61709693 68.1484375 1.45629883 C82.21433989 2.10187492 96.14096144 2.4836583 110.2109375 1.67578125 C122.86275521 0.95861115 135.52196364 1.01603074 148.18994141 1.03759766 C151.64636875 1.04339807 155.10272016 1.03993357 158.55914497 1.03402519 C161.88579044 1.02956474 165.21241488 1.03267268 168.5390625 1.03515625 C169.7784256 1.03313202 171.0177887 1.03110779 172.29470825 1.02902222 C173.99951859 1.03375046 173.99951859 1.03375046 175.73876953 1.03857422 C177.24046188 1.03976761 177.24046188 1.03976761 178.77249146 1.04098511 C181.15625 1.16796875 181.15625 1.16796875 183.15625 2.16796875 C182.82625 3.15796875 182.49625 4.14796875 182.15625 5.16796875 C177.84589518 6.51053828 174.67843352 7.16796875 170.15625 7.16796875 C170.15625 7.82796875 170.15625 8.48796875 170.15625 9.16796875 C172.05225952 9.24144531 172.05225952 9.24144531 173.98657227 9.31640625 C188.18141521 9.89752457 202.33683963 10.82863382 216.50268555 11.89746094 C220.14146123 12.17156274 223.78065055 12.43959866 227.41992188 12.70703125 C229.75783884 12.88115707 232.09573049 13.05562335 234.43359375 13.23046875 C236.04765358 13.34926392 236.04765358 13.34926392 237.69432068 13.47045898 C242.88631904 13.86531572 248.01358393 14.34768289 253.15625 15.16796875 C252.82625 16.15796875 252.49625 17.14796875 252.15625 18.16796875 C242.72478333 22.47726934 231.63327451 21.48244404 221.53125 21.29296875 C218.28912728 21.24562429 215.04699812 21.2076269 211.8046875 21.17578125 C210.58770172 21.1627597 210.58770172 21.1627597 209.34613037 21.1494751 C204.10622487 21.11585493 198.92219687 21.30772554 193.6953125 21.66015625 C179.9687753 22.56512868 166.19921304 22.22355711 152.45117188 22.14746094 C139.54375639 22.08247925 126.69270385 22.04068833 113.8112793 22.93701172 C107.04552798 23.36453164 100.2439585 23.64709593 93.53125 22.60546875 C88.66822317 21.97507638 84.00764105 22.59773291 79.15625 23.16796875 C79.48625 21.18796875 79.81625 19.20796875 80.15625 17.16796875 C72.44175979 16.97118543 64.72698004 16.79460875 57.01171875 16.63085938 C54.39735893 16.57313308 51.78309009 16.51109412 49.16894531 16.44433594 C33.74529982 16.05371406 18.71600055 16.23846105 3.37854004 17.93768311 C-1.62066125 18.45572723 -6.63507213 18.63473312 -11.65625 18.79296875 C-12.74373535 18.82946533 -13.8312207 18.86596191 -14.95166016 18.90356445 C-23.79879102 19.1684449 -32.64784702 19.29726009 -41.49862671 19.34320068 C-42.96806765 19.35132059 -44.43749553 19.36238545 -45.90689087 19.37652588 C-47.96669332 19.39436527 -50.02606694 19.39842159 -52.0859375 19.3984375 C-53.2704248 19.40254639 -54.45491211 19.40665527 -55.67529297 19.41088867 C-58.81188948 19.17041144 -61.01835337 18.5082891 -63.84375 17.16796875 C-61.30204546 14.62626421 -60.03880626 14.78212649 -56.50390625 14.45703125 C-54.9096582 14.29074219 -54.9096582 14.29074219 -53.28320312 14.12109375 C-51.0365107 13.90279165 -48.78909346 13.69182167 -46.54101562 13.48828125 C-44.94483398 13.318125 -44.94483398 13.318125 -43.31640625 13.14453125 C-42.33937744 13.05252441 -41.36234863 12.96051758 -40.35571289 12.86572266 C-37.68895939 12.42512792 -37.68895939 12.42512792 -36.53051758 10.1262207 C-34.84375 8.16796875 -34.84375 8.16796875 -31.08447266 7.74438477 C-29.51687339 7.76113068 -27.94941647 7.8010664 -26.3828125 7.859375 C-25.53901031 7.8757753 -24.69520813 7.8921756 -23.82583618 7.90907288 C-21.16365521 7.96980452 -18.50454841 8.0634352 -15.84375 8.16796875 C-15.02918335 8.19848328 -14.2146167 8.2289978 -13.37536621 8.26043701 C-8.50496184 8.45231494 -3.63848022 8.69840189 1.228302 8.96588135 C5.67367612 9.20894083 10.11999659 9.43305446 14.56640625 9.65625 C15.45857346 9.70110535 16.35074066 9.74596069 17.26994324 9.79217529 C25.91683988 10.21918253 34.56536515 10.53329816 43.21875 10.79296875 C45.13905029 10.85278931 45.13905029 10.85278931 47.09814453 10.91381836 C53.74067798 11.10267043 60.38235412 11.21708882 67.02734375 11.25390625 C68.07306297 11.26437485 68.07306297 11.26437485 69.13990784 11.27505493 C70.81239973 11.27828462 72.4848422 11.22826427 74.15625 11.16796875 C74.48625 10.83796875 74.81625 10.50796875 75.15625 10.16796875 C69.64793587 9.30047759 64.17659004 8.83467926 58.61328125 8.484375 C57.69910934 8.42457962 56.78493744 8.36478424 55.84306335 8.30317688 C53.89235703 8.17581408 51.94157416 8.04961894 49.99072266 7.92449951 C45.93098171 7.66383712 41.87168122 7.39661547 37.81234741 7.12969971 C34.79632134 6.93144848 31.7802421 6.73402025 28.76416016 6.53662109 C21.39382776 6.05309282 14.02453049 5.55689463 6.65625 5.04296875 C5.53839111 4.96763916 4.42053223 4.89230957 3.26879883 4.81469727 C2.25197021 4.74307373 1.2351416 4.6714502 0.1875 4.59765625 C-0.67294922 4.53819824 -1.53339844 4.47874023 -2.41992188 4.41748047 C-4.94074509 4.15798396 -7.36819188 3.70389722 -9.84375 3.16796875 C-9.84375 2.50796875 -9.84375 1.84796875 -9.84375 1.16796875 C-6.72842692 -0.38969279 -3.42027502 0.0052905 0 0 Z " fill="#020202" transform="translate(1338.84375,430.83203125)"/>
<path d="M0 0 C8.65615447 0.29660186 17.31199771 0.46878144 25.9720459 0.61038208 C27.850215 0.6414933 27.850215 0.6414933 29.7663269 0.67323303 C34.84565135 0.75633373 39.92496888 0.83805005 45.00445557 0.91064453 C48.56403832 0.96154092 52.1234976 1.01800485 55.6829834 1.07522583 C56.76773956 1.08876602 57.85249573 1.10230621 58.97012329 1.11625671 C59.96269135 1.13300949 60.9552594 1.14976227 61.97790527 1.16702271 C63.28302063 1.18581482 63.28302063 1.18581482 64.61450195 1.20498657 C66.7142334 1.35647583 66.7142334 1.35647583 68.7142334 2.35647583 C68.3842334 3.34647583 68.0542334 4.33647583 67.7142334 5.35647583 C65.52453613 6.15603638 65.52453613 6.15603638 62.64782715 6.74319458 C61.60433105 6.95911255 60.56083496 7.17503052 59.48571777 7.39749146 C58.38550293 7.6108313 57.28528809 7.82417114 56.1517334 8.04397583 C55.07858887 8.26891724 54.00544434 8.49385864 52.89978027 8.72561646 C47.09194595 9.89571902 41.63966775 10.83355281 35.7142334 10.35647583 C34.7242334 9.36647583 34.7242334 9.36647583 33.7142334 8.35647583 C31.81828517 8.55495048 29.92259832 8.76721142 28.03808594 9.05465698 C23.95682405 9.5847258 19.87080786 9.49860937 15.7611084 9.48928833 C14.78917542 9.49024506 13.81724243 9.49120178 12.81585693 9.4921875 C10.74145443 9.49286704 8.66704977 9.49102853 6.59265137 9.48684692 C3.59796531 9.48170543 0.60344464 9.48668549 -2.39123535 9.49319458 C-12.56772831 9.49628148 -22.73598349 9.3874223 -32.90881348 9.12503052 C-33.76548489 9.10295721 -34.6221563 9.0808839 -35.50478745 9.05814171 C-36.82031286 9.02416503 -36.82031286 9.02416503 -38.16241455 8.98950195 C-56.60235856 8.51378825 -75.02684213 8.26922251 -93.4732666 8.29397583 C-94.57278404 8.29540462 -95.67230148 8.29683342 -96.80513763 8.29830551 C-104.63203683 8.3104245 -112.45889596 8.33255422 -120.2857666 8.35647583 C-128.23649818 8.38033673 -136.18721085 8.4005141 -144.13796997 8.41241455 C-147.25977423 8.41879497 -150.38151265 8.43126849 -153.5032959 8.44412231 C-162.81748747 8.46802637 -172.02128927 8.43873467 -181.2857666 7.35647583 C-181.6157666 6.36647583 -181.9457666 5.37647583 -182.2857666 4.35647583 C-177.56659726 2.83857512 -173.75597934 2.1332767 -168.75061035 2.26663208 C-167.40679519 2.28973114 -166.06296209 2.31180119 -164.71911621 2.33303833 C-163.99449188 2.34754028 -163.26986755 2.36204224 -162.52328491 2.37698364 C-143.32305049 2.72752861 -124.19451607 1.86861417 -105.02322769 0.96453476 C-69.97021847 -0.6823586 -35.08008261 -1.22341496 0 0 Z " fill="#030303" transform="translate(1215.2857666015625,694.6435241699219)"/>
<path d="M0 0 C-6.7438175 7.4382432 -19.50955678 7.26728126 -28.9375 8.5 C-30.54930524 8.71741628 -32.1610397 8.93535796 -33.77270508 9.15380859 C-44.2941001 10.56789484 -54.82938293 11.83097072 -65.38427734 12.9699707 C-71.1896298 13.61218029 -76.84602483 14.50533349 -82.5625 15.6875 C-90.5647721 17.30046107 -98.44865955 17.13691505 -106.58374023 17.01245117 C-113.02614981 16.93333471 -119.23526337 17.1993502 -125.625 18 C-139.32893942 19.68964578 -153.21854399 19.17300012 -167 19 C-167.33 18.34 -167.66 17.68 -168 17 C-162.49128028 15.50850716 -157.20752464 14.55740115 -151.53125 14.03515625 C-150.73384399 13.95631699 -149.93643799 13.87747772 -149.11486816 13.79624939 C-146.57709083 13.54603012 -144.0386547 13.30364063 -141.5 13.0625 C-138.19749786 12.74506488 -134.89547072 12.4231165 -131.59375 12.09765625 C-130.73501282 12.01383698 -129.87627563 11.9300177 -128.99151611 11.84365845 C-124.59428981 11.40332742 -120.21311338 10.91033591 -115.83496094 10.30810547 C-102.96098607 8.5433084 -90.09855456 7.40385141 -77.140625 6.5 C-76.25746613 6.43820997 -75.37430725 6.37641994 -74.46438599 6.31275749 C-66.18425044 5.73588291 -57.90295935 5.1764303 -49.62109375 4.625 C-45.04104788 4.31940072 -40.46182568 4.00321627 -35.88292694 3.6809082 C-34.16265376 3.56200273 -32.44209583 3.4471353 -30.72126007 3.33666992 C-21.96418485 2.77434615 -13.72966103 2.06296764 -5.27581787 -0.49414062 C-3 -1 -3 -1 0 0 Z " fill="#030303" transform="translate(1521,681)"/>
<path d="M0 0 C3.79920754 0.07858736 7.59849395 0.14553904 11.39794922 0.2109375 C13.85759745 0.25713493 16.31723351 0.30398669 18.77685547 0.3515625 C19.89068604 0.37141205 21.0045166 0.3912616 22.15209961 0.41171265 C42.20236065 0.84496006 42.20236065 0.84496006 47.77685547 2.703125 C47.77685547 3.363125 47.77685547 4.023125 47.77685547 4.703125 C14.11685547 4.703125 -19.54314453 4.703125 -54.22314453 4.703125 C-54.22314453 4.043125 -54.22314453 3.383125 -54.22314453 2.703125 C-48.42531817 1.0793039 -43.04281183 0.29013729 -37.03564453 0.0546875 C-36.13982666 0.01622711 -35.24400879 -0.02223328 -34.32104492 -0.06185913 C-22.88112231 -0.47846096 -11.44158664 -0.23833536 0 0 Z " fill="#030303" transform="translate(836.22314453125,687.296875)"/>
<path d="M0 0 C4 4.33333333 4 4.33333333 4 7 C-9.65371014 8.26172899 -23.30033933 8.10117918 -37 8 C-36.67 7.01 -36.34 6.02 -36 5 C-31.51800262 4.11631703 -27.03402294 3.24383509 -22.54785156 2.3815918 C-21.0225175 2.08679976 -19.49776656 1.78897343 -17.97363281 1.48803711 C-15.78076656 1.05561075 -13.58602403 0.63419615 -11.390625 0.21484375 C-10.37165131 0.01023781 -10.37165131 0.01023781 -9.33209229 -0.19850159 C-3.13771164 -1.36122656 -3.13771164 -1.36122656 0 0 Z " fill="#020202" transform="translate(1325,698)"/>
<path d="M0 0 C1.34362885 0.00031689 2.68728332 0.01162897 4.03076172 0.03173828 C4.73820526 0.03456818 5.4456488 0.03739807 6.17453003 0.04031372 C8.43667432 0.05151941 10.69842437 0.07662399 12.96044922 0.10205078 C14.49299559 0.11208011 16.02554816 0.12120604 17.55810547 0.12939453 C21.31737223 0.15145992 25.07634386 0.18599183 28.83544922 0.22705078 C28.83544922 0.88705078 28.83544922 1.54705078 28.83544922 2.22705078 C22.66491917 4.03096444 17.12283481 4.53473341 10.71044922 4.47705078 C9.40914062 4.48865234 9.40914062 4.48865234 8.08154297 4.50048828 C3.26725995 4.48583293 -0.64527425 4.0940306 -5.16455078 2.22705078 C-3.16455078 0.22705078 -3.16455078 0.22705078 0 0 Z " fill="#040404" transform="translate(893.16455078125,688.77294921875)"/>
<path d="M0 0 C10.23 0 20.46 0 31 0 C31 0.99 31 1.98 31 3 C26.95865433 3.3373021 22.91687763 3.66913834 18.875 4 C17.73289062 4.09539063 16.59078125 4.19078125 15.4140625 4.2890625 C13.75117187 4.42441406 13.75117187 4.42441406 12.0546875 4.5625 C11.03874512 4.64628906 10.02280273 4.73007812 8.97607422 4.81640625 C5.95513369 5.0027678 3.02389018 5.16772511 0 5 C-0.66 4.34 -1.32 3.68 -2 3 C-1.34 2.34 -0.68 1.68 0 1 C0 0.67 0 0.34 0 0 Z " fill="#060606" transform="translate(1470,667)"/>
<path d="M0 0 C3.04172719 -0.0271045 6.08320997 -0.04688964 9.125 -0.0625 C9.9809375 -0.07087891 10.836875 -0.07925781 11.71875 -0.08789062 C16.26678411 -0.10538306 20.52383164 0.06807642 25 1 C24.505 1.45375 24.01 1.9075 23.5 2.375 C21.77390663 3.87635519 21.77390663 3.87635519 22 6 C14.84921233 5.54022008 7.89404541 5.03430848 1 3 C0.67 2.01 0.34 1.02 0 0 Z " fill="#070707" transform="translate(446,674)"/>
<path d="M0 0 C0.33 0.66 0.66 1.32 1 2 C-0.98 2.99 -0.98 2.99 -3 4 C-3 4.66 -3 5.32 -3 6 C-6.62532066 5.86152362 -10.25015904 5.71297357 -13.875 5.5625 C-15.42380859 5.50352539 -15.42380859 5.50352539 -17.00390625 5.44335938 C-17.99003906 5.40146484 -18.97617187 5.35957031 -19.9921875 5.31640625 C-20.90339355 5.27974854 -21.81459961 5.24309082 -22.75341797 5.20532227 C-25 5 -25 5 -27 4 C-27 3.34 -27 2.68 -27 2 C-13.635 1.01 -13.635 1.01 0 0 Z " fill="#0A0A0A" transform="translate(435,647)"/>
<path d="M0 0 C1.89583333 0.14583333 3.79166667 0.29166667 5.6875 0.4375 C6.86054688 0.52773438 8.03359375 0.61796875 9.2421875 0.7109375 C14.03255208 1.07942708 18.82291667 1.44791667 23.61328125 1.81640625 C24.40089844 1.87699219 25.18851562 1.93757812 26 2 C25.360625 2.45375 24.72125 2.9075 24.0625 3.375 C21.90297594 4.83921726 21.90297594 4.83921726 21 7 C13.33668281 5.99322726 6.25152293 4.7039577 -1 2 C-0.67 1.34 -0.34 0.68 0 0 Z " fill="#080808" transform="translate(432,584)"/>
<path d="M0 0 C-0.33 0.66 -0.66 1.32 -1 2 C-4.70777089 3.04987061 -8.2887242 3.13461473 -12.125 3.125 C-13.67574219 3.12886719 -13.67574219 3.12886719 -15.2578125 3.1328125 C-18 3 -18 3 -21 2 C-21 1.34 -21 0.68 -21 0 C-14.17852898 -1.43609916 -6.78716727 -1.80991127 0 0 Z " fill="#585858" transform="translate(418,630)"/>
<path d="M0 0 C1.1875 2.5625 1.1875 2.5625 2 5 C1.01 5.33 0.02 5.66 -1 6 C-1 5.34 -1 4.68 -1 4 C-6.61 4 -12.22 4 -18 4 C-18 3.01 -18 2.02 -18 1 C-15.56348622 0.63737003 -13.12623023 0.28461036 -10.6875 -0.0625 C-9.99720703 -0.16626953 -9.30691406 -0.27003906 -8.59570312 -0.37695312 C-5.30415164 -0.83808836 -3.19783876 -1.06594625 0 0 Z " fill="#0F0F0F" transform="translate(574,593)"/>
<path d="M0 0 C2.6015625 -0.29296875 2.6015625 -0.29296875 5.625 -0.1875 C7.12933594 -0.14689453 7.12933594 -0.14689453 8.6640625 -0.10546875 C9.43492188 -0.07066406 10.20578125 -0.03585937 11 0 C11.33 1.32 11.66 2.64 12 4 C8.5647952 6.29013653 7.014669 6.17842973 3 6 C3.66 4.68 4.32 3.36 5 2 C2.69 2.33 0.38 2.66 -2 3 C-1.34 2.01 -0.68 1.02 0 0 Z " fill="#070707" transform="translate(1506,465)"/>
<path d="M0 0 C0.66 0.99 1.32 1.98 2 3 C-1.08298051 4.02766017 -3.33130426 4.16598738 -6.5625 4.1875 C-8.01849609 4.20876953 -8.01849609 4.20876953 -9.50390625 4.23046875 C-12 4 -12 4 -14 2 C-9.06944421 0.02777768 -5.23685512 -0.43640459 0 0 Z " fill="#070707" transform="translate(441,655)"/>
<path d="M0 0 C0.98484375 0.00902344 1.9696875 0.01804687 2.984375 0.02734375 C4.10585938 0.04474609 4.10585938 0.04474609 5.25 0.0625 C5.25 0.7225 5.25 1.3825 5.25 2.0625 C1.96480525 3.15756492 -0.48663415 3.16210608 -3.9375 3.125 C-5.56751953 3.11146484 -5.56751953 3.11146484 -7.23046875 3.09765625 C-8.06191406 3.08605469 -8.89335938 3.07445312 -9.75 3.0625 C-9.75 2.4025 -9.75 1.7425 -9.75 1.0625 C-6.43929162 0.06140485 -3.44915231 -0.04106134 0 0 Z " fill="#000000" transform="translate(990.75,689.9375)"/>
<path d="M0 0 C0 0.99 0 1.98 0 3 C-4.455 3.495 -4.455 3.495 -9 4 C-9.33 2.68 -9.66 1.36 -10 0 C-6.7169902 -1.6415049 -3.57454967 -0.51888624 0 0 Z " fill="#060606" transform="translate(1563,505)"/>
<path d="M0 0 C0.66 0.33 1.32 0.66 2 1 C2 4 2 4 0 7 C-0.99 7 -1.98 7 -3 7 C-4.67099977 7.31088368 -6.33871537 7.64080332 -8 8 C-5.33333333 5.33333333 -2.66666667 2.66666667 0 0 Z M-10 8 C-8 9 -8 9 -8 9 Z M-12 9 C-10 10 -10 10 -10 10 Z " fill="#090909" transform="translate(438,519)"/>
<path d="M0 0 C0.99 0.33 1.98 0.66 3 1 C1.35 2.65 -0.3 4.3 -2 6 C-1.01 6.33 -0.02 6.66 1 7 C-0.98 7 -2.96 7 -5 7 C-4.6189482 4.23737447 -4.16402868 3.15856106 -2.125 1.1875 C-1.42375 0.795625 -0.7225 0.40375 0 0 Z " fill="#0B0B0B" transform="translate(420,530)"/>
<path d="M0 0 C2 1 2 1 2 1 Z M-3 2 C-2.34 2.33 -1.68 2.66 -1 3 C-2.485 4.485 -2.485 4.485 -4 6 C-4.99 5.67 -5.98 5.34 -7 5 C-5.68 4.01 -4.36 3.02 -3 2 Z M-10 6 C-9.01 6.33 -8.02 6.66 -7 7 C-8.95216435 8.95216435 -10.53199953 9.84826645 -13 11 C-11.125 7.125 -11.125 7.125 -10 6 Z " fill="#070707" transform="translate(423,487)"/>
<path d="M0 0 C3.63 0 7.26 0 11 0 C11 0.66 11 1.32 11 2 C7.7 2.33 4.4 2.66 1 3 C0.67 2.01 0.34 1.02 0 0 Z " fill="#070707" transform="translate(1487,599)"/>
<path d="M0 0 C1.4606285 2.64738916 2 3.89448334 2 7 C0.02 6.01 -1.96 5.02 -4 4 C-3.67 3.01 -3.34 2.02 -3 1 C-2.01 0.67 -1.02 0.34 0 0 Z " fill="#080808" transform="translate(405,542)"/>
<path d="M0 0 C2.64 0 5.28 0 8 0 C7.67 0.99 7.34 1.98 7 3 C4.69 3 2.38 3 0 3 C0 2.01 0 1.02 0 0 Z " fill="#0E0E0E" transform="translate(1593,532)"/>
<path d="M0 0 C2 1 2 1 2 1 Z M-14 1 C-9.38 1 -4.76 1 0 1 C0 1.33 0 1.66 0 2 C-3.3 2.33 -6.6 2.66 -10 3 C-10 3.66 -10 4.32 -10 5 C-10.66 5 -11.32 5 -12 5 C-12.66 3.68 -13.32 2.36 -14 1 Z " fill="#090909" transform="translate(454,646)"/>
<path d="M0 0 C1.43739513 -0.02712066 2.87493863 -0.04645067 4.3125 -0.0625 C5.51326172 -0.07990234 5.51326172 -0.07990234 6.73828125 -0.09765625 C9 0 9 0 12 1 C12 1.66 12 2.32 12 3 C9.69 3 7.38 3 5 3 C5 2.67 5 2.34 5 2 C3.35 1.67 1.7 1.34 0 1 C0 0.67 0 0.34 0 0 Z " fill="#0C0C0C" transform="translate(872,689)"/>
<path d="M0 0 C1.32 0.33 2.64 0.66 4 1 C3.34 2.32 2.68 3.64 2 5 C0.68 4.67 -0.64 4.34 -2 4 C-1.34 2.68 -0.68 1.36 0 0 Z " fill="#090909" transform="translate(432,556)"/>
<path d="M0 0 C1.65 0.99 3.3 1.98 5 3 C4.67 3.99 4.34 4.98 4 6 C4 5.34 4 4.68 4 4 C2.02 4.33 0.04 4.66 -2 5 C-2 2 -2 2 0 0 Z " fill="#0A0A0A" transform="translate(422,481)"/>
<path d="M0 0 C0 0.66 0 1.32 0 2 C-4.33273814 2.92844389 -7.66726186 2.92844389 -12 2 C-12 1.67 -12 1.34 -12 1 C-7.915021 0.45533613 -4.1274515 0 0 0 Z " fill="#000000" transform="translate(1370,703)"/>
<path d="M0 0 C-0.33 0.66 -0.66 1.32 -1 2 C-4.375 2.125 -4.375 2.125 -8 2 C-8.66 1.34 -9.32 0.68 -10 0 C-6.30581799 -1.231394 -3.7943739 -0.64432764 0 0 Z " fill="#090909" transform="translate(1552,634)"/>
<path d="M0 0 C0 0.66 0 1.32 0 2 C-0.99 2 -1.98 2 -3 2 C-3 2.66 -3 3.32 -3 4 C-4.65 3.67 -6.3 3.34 -8 3 C-7.67 2.34 -7.34 1.68 -7 1 C-4.61370553 0.38812962 -2.46459429 0 0 0 Z " fill="#0D0D0D" transform="translate(429,573)"/>
<path d="M0 0 C0.66 0.33 1.32 0.66 2 1 C1.01 2.98 0.02 4.96 -1 7 C-1.66 6.01 -2.32 5.02 -3 4 C-2.67 3.01 -2.34 2.02 -2 1 C-1.34 0.67 -0.68 0.34 0 0 Z " fill="#090909" transform="translate(420,475)"/>
<path d="M0 0 C1.98 0 3.96 0 6 0 C6 0.66 6 1.32 6 2 C4.02 2 2.04 2 0 2 C0 1.34 0 0.68 0 0 Z " fill="#141414" transform="translate(1597,513)"/>
<path d="M0 0 C1.65 0 3.3 0 5 0 C5 0.66 5 1.32 5 2 C3.35 2 1.7 2 0 2 C0 1.34 0 0.68 0 0 Z " fill="#0C0C0C" transform="translate(1604,612)"/>
<path d="M0 0 C1.32 0 2.64 0 4 0 C4 0.66 4 1.32 4 2 C2.35 2 0.7 2 -1 2 C-0.67 1.34 -0.34 0.68 0 0 Z " fill="#010101" transform="translate(1019,690)"/>
<path d="M0 0 C1.32 0 2.64 0 4 0 C4 0.66 4 1.32 4 2 C2.35 2 0.7 2 -1 2 C-0.67 1.34 -0.34 0.68 0 0 Z " fill="#010101" transform="translate(1566,522)"/>
</svg>
